<svg aria-hidden="true" style="position:absolute;width:0;height:0" xmlns="http://www.w3.org/2000/svg" overflow="hidden"><defs><symbol id="icon-flash" viewBox="0 0 20 32"><path d="M4 31.667a1.064 1.064 0 01-.688-.243 1.096 1.096 0 01-.359-1.17l3.023-10.587H1.439a1.034 1.034 0 01-.737-.277 1.087 1.087 0 01-.103-1.533L14.726.73a1.102 1.102 0 011.12-.36 1.055 1.055 0 01.667.494c.149.247.194.543.127.823l-2.693 11.937h4.627a1.105 1.105 0 01.991.641 1.1 1.1 0 01-.165 1.168v.017L4.82 31.3a1.072 1.072 0 01-.82.367zm2.863-13.334a.665.665 0 01.64.849L4.51 29.665l13.52-14.71h-4.917a.677.677 0 01-.532-.243.66.66 0 01-.135-.569l2.667-11.8-13.18 15.99h4.93z"/></symbol></defs></svg>