<svg aria-hidden="true" style="position:absolute;width:50px;height:50px" xmlns="http://www.w3.org/2000/svg" overflow="hidden"><defs><symbol id="icon-cart" viewBox="0 0 36 32"><path d="M17.118 24.618a2.883 2.883 0 00-2.661 1.777 2.88 2.88 0 102.661-1.778zm0 4.32a1.434 1.434 0 01-1.33-.889 1.437 1.437 0 01.312-1.569 1.437 1.437 0 012.215.218c.158.237.243.515.243.8a1.438 1.438 0 01-1.44 1.429v.011zM27.655 24.618a2.883 2.883 0 00-2.661 1.777 2.88 2.88 0 102.66-1.778zm0 4.32a1.434 1.434 0 01-1.33-.889 1.437 1.437 0 01.312-1.569 1.437 1.437 0 012.215.218c.158.237.243.515.243.8a1.438 1.438 0 01-1.44 1.429v.011zM31.95 20.23l2.912-13.003a2.32 2.32 0 00-.454-1.961 2.33 2.33 0 00-1.814-.873H9.889l-.446-2.185a.719.719 0 00-.72-.576H1.8a.72.72 0 000 1.44h6.35l.446 2.185 3.06 14.958.688 3.344a.719.719 0 00.72.576h20.099a.72.72 0 000-1.44H13.637l-.392-1.912h18a.72.72 0 00.706-.555zm-18.99-.878L10.184 5.834h22.41a.884.884 0 01.864 1.08l-2.79 12.438H12.96z"/></symbol><symbol id="icon-people" viewBox="0 0 32 32"><path d="M31.04 16a15.035 15.035 0 00-6.733-12.537 15.045 15.045 0 00-14.17-1.314 15.045 15.045 0 00-8.922 11.086 15.032 15.032 0 004.313 13.561 15.018 15.018 0 0020.835.083.635.635 0 00.16-.15 14.991 14.991 0 004.515-10.73zM16 2.24a13.766 13.766 0 0112.567 8.177 13.762 13.762 0 01-2.365 14.805 11.372 11.372 0 00-7.04-5.815 6.49 6.49 0 00.8-10.798 6.49 6.49 0 10-7.136 10.798 11.356 11.356 0 00-7.04 5.818 13.627 13.627 0 01-3.546-9.226A13.756 13.756 0 0116 2.239zm0 16.72a5.208 5.208 0 01-4.814-3.219 5.207 5.207 0 013.803-7.102 5.202 5.202 0 016.22 5.12 5.214 5.214 0 01-5.209 5.2zm-9.242 7.229a10.159 10.159 0 0114.737-4.332 10.158 10.158 0 013.747 4.332 13.74 13.74 0 01-18.484 0z"/></symbol></defs></svg>