<svg aria-hidden="true" style="position: absolute; width: 50px; height: 50px; overflow: hidden;" version="1.1" xmlns="http://www.w3.org/2000/svg" xmlns:xlink="http://www.w3.org/1999/xlink">
<defs>
<symbol id="icon-cart" viewBox="0 0 36 32">
<path d="M17.118 24.618c-0.57 0-1.126 0.169-1.6 0.485s-0.843 0.766-1.061 1.292c-0.218 0.526-0.275 1.105-0.164 1.664s0.385 1.072 0.788 1.475c0.403 0.403 0.916 0.677 1.475 0.788s1.138 0.054 1.664-0.164 0.976-0.587 1.293-1.061c0.316-0.474 0.485-1.030 0.485-1.6 0-0.764-0.303-1.496-0.844-2.036s-1.273-0.844-2.036-0.844zM17.118 28.938c-0.285 0-0.563-0.084-0.8-0.243s-0.421-0.383-0.53-0.646c-0.109-0.263-0.138-0.553-0.082-0.832s0.193-0.536 0.394-0.737 0.458-0.339 0.737-0.394c0.279-0.055 0.569-0.027 0.832 0.082s0.488 0.294 0.646 0.53c0.158 0.237 0.243 0.515 0.243 0.8-0.003 0.38-0.156 0.744-0.426 1.011s-0.634 0.418-1.014 0.418v0.011z"></path>
<path d="M27.655 24.618c-0.57 0-1.126 0.169-1.6 0.485s-0.843 0.766-1.061 1.292c-0.218 0.526-0.275 1.105-0.164 1.664s0.385 1.072 0.788 1.475c0.403 0.403 0.916 0.677 1.475 0.788s1.138 0.054 1.664-0.164c0.526-0.218 0.976-0.587 1.292-1.061s0.485-1.030 0.485-1.6c0-0.764-0.303-1.496-0.844-2.036s-1.273-0.844-2.036-0.844zM27.655 28.938c-0.285 0-0.563-0.084-0.8-0.243s-0.421-0.383-0.53-0.646c-0.109-0.263-0.138-0.553-0.082-0.832s0.193-0.536 0.394-0.737 0.458-0.339 0.737-0.394c0.279-0.055 0.569-0.027 0.832 0.082s0.488 0.294 0.646 0.53c0.158 0.237 0.243 0.515 0.243 0.8-0.003 0.38-0.156 0.744-0.426 1.011s-0.634 0.418-1.014 0.418v0.011z"></path>
<path d="M31.95 20.23l2.912-13.003c0.076-0.34 0.075-0.693-0.004-1.032s-0.232-0.657-0.45-0.929c-0.218-0.272-0.494-0.492-0.808-0.643s-0.658-0.229-1.006-0.23h-22.705l-0.446-2.185c-0.034-0.165-0.124-0.313-0.256-0.418s-0.296-0.161-0.464-0.158h-6.923c-0.191 0-0.374 0.076-0.509 0.211s-0.211 0.318-0.211 0.509c0 0.191 0.076 0.374 0.211 0.509s0.318 0.211 0.509 0.211h6.35l0.446 2.185 3.060 14.958 0.688 3.344c0.034 0.165 0.124 0.313 0.256 0.418s0.296 0.161 0.464 0.158h20.099c0.191 0 0.374-0.076 0.509-0.211s0.211-0.318 0.211-0.509-0.076-0.374-0.211-0.509c-0.135-0.135-0.318-0.211-0.509-0.211h-19.526l-0.392-1.912h18c0.163 0.001 0.322-0.053 0.45-0.154s0.218-0.242 0.256-0.401zM12.96 19.352l-2.776-13.518h22.41c0.133-0.001 0.265 0.029 0.385 0.086s0.226 0.141 0.309 0.245c0.083 0.104 0.142 0.225 0.171 0.355s0.029 0.264-0.001 0.394l-2.79 12.438h-17.708z"></path>
</symbol>
<symbol id="icon-people" viewBox="0 0 32 32">
<path d="M31.040 16c0-2.483-0.615-4.928-1.79-7.115s-2.873-4.050-4.943-5.422c-2.070-1.372-4.447-2.209-6.92-2.439s-4.963 0.157-7.25 1.125c-2.287 0.968-4.298 2.487-5.855 4.421s-2.61 4.224-3.067 6.665c-0.456 2.441-0.301 4.957 0.451 7.323s2.079 4.509 3.862 6.238c2.788 2.706 6.516 4.227 10.401 4.242s7.625-1.475 10.434-4.159c0.062-0.041 0.116-0.091 0.16-0.15 1.43-1.397 2.566-3.067 3.341-4.909s1.175-3.822 1.174-5.821zM16 2.24c2.661 0.002 5.264 0.776 7.495 2.227s3.992 3.518 5.072 5.95c1.079 2.432 1.431 5.125 1.011 7.753s-1.592 5.077-3.376 7.052c-0.708-1.403-1.699-2.644-2.911-3.645s-2.618-1.739-4.129-2.17c1.253-0.701 2.239-1.798 2.802-3.119s0.672-2.792 0.31-4.181-1.175-2.62-2.312-3.498c-1.136-0.878-2.532-1.355-3.968-1.355s-2.832 0.476-3.968 1.355c-1.136 0.878-1.949 2.108-2.312 3.498s-0.253 2.86 0.31 4.181c0.563 1.321 1.549 2.418 2.802 3.119-1.512 0.43-2.918 1.169-4.13 2.171s-2.203 2.243-2.91 3.647c-2.295-2.523-3.56-5.815-3.546-9.226 0-3.649 1.45-7.149 4.030-9.73s6.080-4.030 9.73-4.030zM16 18.96c-1.031 0-2.038-0.306-2.895-0.879s-1.525-1.387-1.919-2.34-0.497-2-0.295-3.011c0.202-1.011 0.699-1.939 1.428-2.667s1.659-1.224 2.67-1.424c1.011-0.2 2.059-0.095 3.011 0.3s1.765 1.065 2.336 1.923c0.571 0.858 0.875 1.866 0.873 2.897-0.003 1.38-0.554 2.702-1.53 3.677s-2.3 1.523-3.679 1.523zM6.758 26.189c0.807-1.774 2.108-3.278 3.747-4.332s3.546-1.615 5.495-1.615c1.949 0 3.856 0.561 5.495 1.615s2.939 2.559 3.747 4.332c-2.529 2.299-5.824 3.573-9.242 3.573s-6.713-1.274-9.242-3.573z"></path>
</symbol>
</defs>
</svg>
