<svg aria-hidden="true" style="position: absolute; width: 0; height: 0; overflow: hidden;" version="1.1" xmlns="http://www.w3.org/2000/svg" xmlns:xlink="http://www.w3.org/1999/xlink">
<defs>
<symbol id="icon-flash" viewBox="0 0 20 32">
<path d="M4 31.667c-0.104 0.001-0.207-0.014-0.307-0.043-0.139-0.041-0.268-0.109-0.381-0.2s-0.206-0.204-0.275-0.331c-0.069-0.127-0.112-0.267-0.126-0.411s-0-0.289 0.042-0.428l3.023-10.587h-4.537c-0.135 0.005-0.27-0.017-0.396-0.065s-0.242-0.119-0.341-0.212c-0.216-0.19-0.348-0.458-0.368-0.745s0.076-0.571 0.265-0.788l14.127-17.127c0.133-0.161 0.309-0.28 0.507-0.343s0.411-0.070 0.613-0.017c0.139 0.033 0.269 0.094 0.384 0.179s0.211 0.192 0.283 0.315c0.149 0.247 0.194 0.543 0.127 0.823l-2.693 11.937h4.627c0.209 0.001 0.414 0.062 0.589 0.176s0.315 0.275 0.402 0.465c0.087 0.19 0.118 0.401 0.088 0.608s-0.117 0.402-0.253 0.56v0.017l-14.58 15.85c-0.102 0.116-0.229 0.209-0.37 0.273s-0.295 0.095-0.45 0.094zM6.863 18.333c0.103 0 0.205 0.024 0.297 0.070s0.173 0.113 0.235 0.195c0.062 0.082 0.104 0.178 0.123 0.279s0.014 0.206-0.015 0.305l-2.993 10.483 13.52-14.71h-4.917c-0.101 0.002-0.202-0.018-0.294-0.060s-0.173-0.105-0.238-0.183c-0.064-0.078-0.11-0.17-0.133-0.269s-0.024-0.201-0.002-0.3l2.667-11.8-13.18 15.99h4.93z"></path>
</symbol>
</defs>
</svg>
